<svg width="28" height="25" viewBox="0 0 28 25" fill="none" xmlns="http://www.w3.org/2000/svg">
<g filter="url(#filter0_d_117_353)">
<path d="M25.2355 16.1926H8.95234L9.76991 14.5273L23.3543 14.5027C23.8137 14.5027 24.2074 14.1746 24.2894 13.7207L26.1707 3.19062C26.2199 2.91445 26.1461 2.63008 25.9656 2.41406C25.8764 2.30775 25.7652 2.22211 25.6396 2.16309C25.514 2.10407 25.377 2.07308 25.2383 2.07227L7.95702 2.01484L7.80937 1.32031C7.7164 0.877344 7.31718 0.554688 6.86328 0.554688H2.63867C2.38267 0.554688 2.13716 0.656381 1.95614 0.837398C1.77513 1.01841 1.67343 1.26393 1.67343 1.51992C1.67343 1.77592 1.77513 2.02143 1.95614 2.20245C2.13716 2.38346 2.38267 2.48516 2.63867 2.48516H6.08124L6.72656 5.55312L8.31523 13.2449L6.26992 16.5836C6.1637 16.727 6.09972 16.8972 6.08523 17.075C6.07073 17.2528 6.10629 17.4312 6.18788 17.5898C6.35195 17.9152 6.68281 18.1203 7.04921 18.1203H8.7664C8.40032 18.6065 8.20258 19.1988 8.20312 19.8074C8.20312 21.3551 9.46093 22.6129 11.0086 22.6129C12.5562 22.6129 13.8141 21.3551 13.8141 19.8074C13.8141 19.1977 13.6117 18.6043 13.2508 18.1203H17.6559C17.2898 18.6065 17.092 19.1988 17.0926 19.8074C17.0926 21.3551 18.3504 22.6129 19.898 22.6129C21.4457 22.6129 22.7035 21.3551 22.7035 19.8074C22.7035 19.1977 22.5012 18.6043 22.1402 18.1203H25.2383C25.7687 18.1203 26.2035 17.6883 26.2035 17.1551C26.2019 16.8994 26.0993 16.6546 25.9179 16.4743C25.7366 16.294 25.4913 16.1927 25.2355 16.1926ZM8.35898 3.91797L24.1035 3.96992L22.5613 12.6051L10.1937 12.627L8.35898 3.91797ZM11.0086 20.6715C10.5328 20.6715 10.1445 20.2832 10.1445 19.8074C10.1445 19.3316 10.5328 18.9434 11.0086 18.9434C11.4844 18.9434 11.8726 19.3316 11.8726 19.8074C11.8726 20.0366 11.7816 20.2564 11.6196 20.4184C11.4575 20.5805 11.2378 20.6715 11.0086 20.6715ZM19.898 20.6715C19.4223 20.6715 19.034 20.2832 19.034 19.8074C19.034 19.3316 19.4223 18.9434 19.898 18.9434C20.3738 18.9434 20.7621 19.3316 20.7621 19.8074C20.7621 20.0366 20.6711 20.2564 20.509 20.4184C20.347 20.5805 20.1272 20.6715 19.898 20.6715Z" fill="black"/>
</g>
<defs>
<filter id="filter0_d_117_353" x="-2.32657" y="0.554688" width="32.5301" height="30.0582" filterUnits="userSpaceOnUse" color-interpolation-filters="sRGB">
<feFlood flood-opacity="0" result="BackgroundImageFix"/>
<feColorMatrix in="SourceAlpha" type="matrix" values="0 0 0 0 0 0 0 0 0 0 0 0 0 0 0 0 0 0 127 0" result="hardAlpha"/>
<feOffset dy="4"/>
<feGaussianBlur stdDeviation="2"/>
<feComposite in2="hardAlpha" operator="out"/>
<feColorMatrix type="matrix" values="0 0 0 0 0 0 0 0 0 0 0 0 0 0 0 0 0 0 0.25 0"/>
<feBlend mode="normal" in2="BackgroundImageFix" result="effect1_dropShadow_117_353"/>
<feBlend mode="normal" in="SourceGraphic" in2="effect1_dropShadow_117_353" result="shape"/>
</filter>
</defs>
</svg>
